<svg width="17" height="17" viewBox="0 0 17 17" fill="none" xmlns="http://www.w3.org/2000/svg">
<g clip-path="url(#clip0_159_3083)">
<path d="M7.47526 4.42006L5.07897 1.65402C4.80272 1.33527 4.29626 1.33669 3.97539 1.65827L2.00481 3.6324C1.41831 4.2196 1.25043 5.09156 1.58972 5.79069C3.6167 9.98754 7.00142 13.377 11.1954 15.4099C11.8938 15.7491 12.7651 15.5813 13.3516 14.9941L15.3406 13.0015C15.6629 12.6792 15.6636 12.1699 15.342 11.8937L12.5653 9.51014C12.2749 9.26081 11.8237 9.29339 11.5326 9.58523L10.5664 10.5528C10.517 10.6047 10.4519 10.6388 10.3811 10.6501C10.3103 10.6613 10.2378 10.6491 10.1747 10.6151C8.59545 9.70571 7.28542 8.39397 6.37806 6.81352C6.34407 6.7503 6.33177 6.67768 6.34303 6.6068C6.35429 6.53591 6.38849 6.47068 6.44039 6.4211L7.40372 5.45706C7.69556 5.16381 7.72743 4.71048 7.47526 4.41935V4.42006Z" stroke="#00CD15" stroke-linecap="round" stroke-linejoin="round"/>
</g>
<defs>
<clipPath id="clip0_159_3083">
<rect width="17" height="17" fill="white"/>
</clipPath>
</defs>
</svg>
