<svg width="24" height="25" viewBox="0 0 24 25" fill="none" xmlns="http://www.w3.org/2000/svg">
<path fill-rule="evenodd" clip-rule="evenodd" d="M3 4.875C3 4.32272 3.44772 3.875 4 3.875H5.5C5.995 3.875 6.41551 4.23714 6.48894 4.72666L6.66119 5.875H19C19.3125 5.875 19.607 6.02109 19.7961 6.26987C19.9852 6.51866 20.0472 6.84155 19.9635 7.14264L17.4635 16.1426C17.3433 16.5755 16.9492 16.875 16.5 16.875H7C6.4988 16.875 6.07501 16.504 6.00877 16.0072L4.80985 7.01526L4.63881 5.875H4C3.44772 5.875 3 5.42728 3 4.875ZM6.94218 7.875L7.87552 14.875H15.7399L17.6844 7.875H6.94218ZM10 19.875C10 20.9796 9.10457 21.875 8 21.875C6.89543 21.875 6 20.9796 6 19.875C6 18.7704 6.89543 17.875 8 17.875C9.10457 17.875 10 18.7704 10 19.875ZM15 21.875C16.1046 21.875 17 20.9796 17 19.875C17 18.7704 16.1046 17.875 15 17.875C13.8954 17.875 13 18.7704 13 19.875C13 20.9796 13.8954 21.875 15 21.875Z" fill="white"/>
</svg>
