<svg width="67" height="75" viewBox="0 0 67 75" fill="none" xmlns="http://www.w3.org/2000/svg">
<g clip-path="url(#clip0_875_14096)">
<path d="M33.7094 9.37012H34.0756C37.4577 9.38418 54.5949 9.52481 59.2155 10.9404C60.6124 11.3725 61.8853 12.2146 62.9069 13.3827C63.9286 14.5507 64.6633 16.0038 65.0376 17.5967C65.4532 19.3779 65.7453 21.7357 65.9428 24.1686L65.984 24.6561L66.0745 25.8748L66.1074 26.3623C66.3749 30.6467 66.4078 34.6592 66.4119 35.5357V35.8873C66.4078 36.7967 66.3708 41.0811 66.0745 45.5436L66.0416 46.0357L66.0046 46.5232C65.7988 49.2045 65.4944 51.867 65.0376 53.8264C64.6645 55.4199 63.9302 56.8737 62.9083 58.0419C61.8864 59.2102 60.613 60.0519 59.2155 60.4826C54.4426 61.9451 36.3015 62.0482 33.7875 62.0529H33.2033C31.9319 62.0529 26.6735 62.0248 21.1599 61.8092L20.4605 61.7811L20.1025 61.7623L19.3989 61.7295L18.6953 61.6967C14.1281 61.467 9.77906 61.0967 7.77526 60.4779C6.37833 60.0476 5.10518 59.2066 4.08337 58.0392C3.06155 56.8718 2.32695 55.419 1.95316 53.8264C1.49644 51.8717 1.19196 49.2045 0.986235 46.5232L0.953319 46.0311L0.920402 45.5436C0.717338 42.3673 0.604814 39.1844 0.583008 35.9998L0.583008 35.4232C0.591237 34.4154 0.624153 30.9326 0.84634 27.0889L0.875142 26.6061L0.887485 26.3623L0.920402 25.8748L1.01092 24.6561L1.05207 24.1686C1.24957 21.7357 1.5417 19.3732 1.95727 17.5967C2.33044 16.0032 3.06476 14.5494 4.08661 13.3811C5.10847 12.2129 6.38195 11.3712 7.77938 10.9404C9.78317 10.3311 14.1323 9.95605 18.6994 9.72168L19.3989 9.68887L20.1066 9.66074L20.4605 9.64668L21.1641 9.61387C25.0799 9.47031 28.9974 9.39061 32.9152 9.3748H33.7094V9.37012ZM26.9162 24.417V47.0014L44.0205 35.7139L26.9162 24.417Z" fill="white"/>
</g>
<defs>
<clipPath id="clip0_875_14096">
<rect width="65.833" height="75" fill="white" transform="translate(0.583008)"/>
</clipPath>
</defs>
</svg>
