<svg width="24" height="24" viewBox="0 0 24 24" fill="none" xmlns="http://www.w3.org/2000/svg">
<path d="M15.4115 1H7.58852C6.71167 1 6 1.71015 6 2.58858V21.4114C6 22.2883 6.71013 23 7.58852 23H15.4115C16.2883 23 17 22.2899 17 21.4122V2.58858C17 2.16726 16.8326 1.7632 16.5347 1.46528C16.2368 1.16737 15.8328 1 15.4115 1ZM10.7069 2.74759H12.2939C12.3711 2.74759 12.4351 2.80934 12.4351 2.88653C12.4351 2.96372 12.3711 3.02547 12.2931 3.02547H10.7069C10.6297 3.02547 10.5664 2.96372 10.5664 2.88653C10.5664 2.80934 10.6282 2.74759 10.7054 2.74759H10.7069ZM9.59926 2.58858C9.67295 2.58858 9.74363 2.61785 9.79574 2.66997C9.84785 2.72208 9.87713 2.79276 9.87713 2.86646C9.87713 2.94016 9.84785 3.01084 9.79574 3.06296C9.74363 3.11507 9.67295 3.14435 9.59926 3.14435C9.52556 3.14435 9.45488 3.11507 9.40277 3.06296C9.35066 3.01084 9.32138 2.94016 9.32138 2.86646C9.32138 2.79276 9.35066 2.72208 9.40277 2.66997C9.45488 2.61785 9.52556 2.58858 9.59926 2.58858ZM11.5004 22.2065C11.3544 22.2065 11.2099 22.1777 11.075 22.1219C10.9402 22.066 10.8176 21.9841 10.7144 21.8809C10.6112 21.7777 10.5294 21.6552 10.4735 21.5203C10.4176 21.3855 10.3889 21.2409 10.3889 21.0949C10.3889 20.949 10.4176 20.8044 10.4735 20.6696C10.5294 20.5347 10.6112 20.4122 10.7144 20.309C10.8176 20.2058 10.9402 20.1239 11.075 20.068C11.2099 20.0122 11.3544 19.9834 11.5004 19.9834C11.7952 19.9834 12.0779 20.1005 12.2863 20.309C12.4948 20.5174 12.6119 20.8001 12.6119 21.0949C12.6119 21.3897 12.4948 21.6725 12.2863 21.8809C12.0779 22.0894 11.7952 22.2065 11.5004 22.2065ZM16.4041 19.0278C16.4041 19.091 16.3791 19.1516 16.3346 19.1964C16.29 19.2413 16.2296 19.2667 16.1664 19.2671H6.83363C6.77043 19.2667 6.70997 19.2413 6.66542 19.1964C6.62088 19.1516 6.59589 19.091 6.59589 19.0278V4.89193C6.59589 4.76071 6.70241 4.65264 6.83363 4.65264H16.1656C16.2968 4.65264 16.4049 4.76071 16.4049 4.89193V19.0278H16.4041Z" fill="#4FD11B"/>
</svg>
