<svg width="24" height="24" viewBox="0 0 24 24" fill="none" xmlns="http://www.w3.org/2000/svg">
<path d="M8.625 13.1429H8.0625C6.81973 13.1429 5.8125 14.1679 5.8125 15.4329V17.71C5.8125 18.9746 6.81973 20 8.0625 20H8.625C9.24621 20 9.75 19.4871 9.75 18.855V14.2879C9.75 13.6554 9.24621 13.1429 8.625 13.1429ZM15.9375 13.1429H15.375C14.7538 13.1429 14.25 13.6554 14.25 14.2879V18.855C14.25 19.4871 14.7538 20 15.375 20H15.9375C17.1803 20 18.1875 18.9746 18.1875 17.71V15.4329C18.1875 14.1682 17.1803 13.1429 15.9375 13.1429ZM12 4C6.96949 4 3.16066 8.25464 3 13.1429V17.1429C3 17.4586 3.25172 17.7143 3.5625 17.7143H4.125C4.43578 17.7143 4.6875 17.4586 4.6875 17.1429V13.1429C4.6875 9.0475 7.96863 5.72143 12 5.72071C16.0314 5.72143 19.3125 9.0475 19.3125 13.1429V17.1429C19.3125 17.4586 19.5642 17.7143 19.875 17.7143H20.4375C20.7483 17.7143 21 17.4586 21 17.1429V13.1429C20.8393 8.25464 17.0305 4 12 4Z" fill="#4FD11B"/>
</svg>
