<svg width="24" height="24" viewBox="0 0 24 24" fill="none" xmlns="http://www.w3.org/2000/svg">
<path d="M11.9231 11.3462C11.9231 10.6965 12.1377 10.0977 12.5 9.61538H5V15.9615C5 16.7266 5.30391 17.4603 5.84488 18.0013C6.38585 18.5422 7.11957 18.8462 7.88462 18.8462H11.9808C11.9423 18.6563 11.923 18.463 11.9231 18.2692V11.3462ZM5 8.46154V7.88462C5 7.11957 5.30391 6.38585 5.84488 5.84488C6.38585 5.30391 7.11957 5 7.88462 5H15.9615C16.7266 5 17.4603 5.30391 18.0013 5.84488C18.5422 6.38585 18.8462 7.11957 18.8462 7.88462V8.46154H5ZM15.0962 9.61538C14.5606 9.61538 14.047 9.82812 13.6683 10.2068C13.2897 10.5855 13.0769 11.0991 13.0769 11.6346V17.9808C13.0769 19.0954 13.9815 20 15.0962 20H17.9808C18.5163 20 19.0299 19.7873 19.4086 19.4086C19.7873 19.0299 20 18.5163 20 17.9808V11.6346C20 11.0991 19.7873 10.5855 19.4086 10.2068C19.0299 9.82812 18.5163 9.61538 17.9808 9.61538H15.0962ZM15.3846 17.1154C15.3846 16.9624 15.4454 16.8156 15.5536 16.7074C15.6618 16.5992 15.8085 16.5385 15.9615 16.5385H17.1154C17.2684 16.5385 17.4151 16.5992 17.5233 16.7074C17.6315 16.8156 17.6923 16.9624 17.6923 17.1154C17.6923 17.2684 17.6315 17.4151 17.5233 17.5233C17.4151 17.6315 17.2684 17.6923 17.1154 17.6923H15.9615C15.8085 17.6923 15.6618 17.6315 15.5536 17.5233C15.4454 17.4151 15.3846 17.2684 15.3846 17.1154Z" fill="#4FD11B"/>
</svg>
