<svg width="24" height="24" viewBox="0 0 24 24" fill="none" xmlns="http://www.w3.org/2000/svg">
<path fill-rule="evenodd" clip-rule="evenodd" d="M13.6 8.15789V6.57895H10.4V8.15789H13.6ZM5.6 9.73684V18.4211H18.4V9.73684H5.6ZM18.4 8.15789C19.288 8.15789 20 8.86053 20 9.73684V18.4211C20 19.2974 19.288 20 18.4 20H5.6C4.712 20 4 19.2974 4 18.4211L4.008 9.73684C4.008 8.86053 4.712 8.15789 5.6 8.15789H8.8V6.57895C8.8 5.70263 9.512 5 10.4 5H13.6C14.488 5 15.2 5.70263 15.2 6.57895V8.15789H18.4Z" fill="#4FD11B"/>
</svg>
